<svg width="48" height="48" fill="none" xmlns="http://www.w3.org/2000/svg"><circle cx="24" cy="24" r="24" fill="#09B3AF"/><path d="M25.962 24.315h-4.803v2.31h4.687c.278 0 .532-.116.74-.3.184-.185.3-.463.3-.809a1.386 1.386 0 0 0-.254-.831c-.185-.231-.393-.37-.67-.37zm.162-2.794c.207-.139.3-.439.3-.831 0-.347-.093-.6-.254-.762a.923.923 0 0 0-.6-.231h-4.411v2.078h4.318c.23 0 .462-.115.647-.254z" fill="#fff"/><path d="M33.102 13H15.036C14.46 13 14 13.468 14 14.03v18.385c0 .562.46.913 1.013.913h2.67V37l3.314-3.65h12.105c.553 0 .898-.35.898-.935V14.053c0-.562-.345-1.03-.92-1.03l.022-.023zm-3.038 14.9c-.23.422-.575.773-.99 1.03-.437.28-.92.538-1.472.655-.553.14-1.15.257-1.772.257h-8.148v-13.1h9.252c.46 0 .852.094 1.22.305.345.187.668.444.92.748.516.64.793 1.443.783 2.27 0 .607-.16 1.192-.46 1.754a2.894 2.894 0 0 1-1.38 1.263c.736.21 1.311.585 1.748 1.123.415.561.622 1.286.622 2.199 0 .584-.115 1.076-.346 1.497h.023z" fill="#fff"/></svg>